{
  "accessors": [
    {
      "bufferView": 1,
      "componentType": 5126,
      "count": 24330,
      "max": [
        0.5991664528846741,
        2.5318129814877466e-07,
        0.056877780705690384
      ],
      "min": [
        -0.6551638245582581,
        -0.01840592920780182,
        -0.05012132227420807
      ],
      "type": "VEC3"
    },
    {
      "bufferView": 1,
      "byteOffset": 291960,
      "componentType": 5126,
      "count": 24330,
      "max": [
        1.0,
        0.0021973736584186554,
        1.0
      ],
      "min": [
        -1.0,
        -0.9999998807907104,
        -1.0
      ],
      "type": "VEC3"
    },
    {
      "bufferView": 0,
      "componentType": 5125,
      "count": 139752,
      "type": "SCALAR"
    },
    {
      "bufferView": 1,
      "byteOffset": 583920,
      "componentType": 5126,
      "count": 16499,
      "max": [
        0.5580913424491882,
        5.301879809849197e-06,
        0.17659957706928253
      ],
      "min": [
        -0.520505964756012,
        -0.033049628138542175,
        -0.21904356777668
      ],
      "type": "VEC3"
    },
    {
      "bufferView": 1,
      "byteOffset": 781908,
      "componentType": 5126,
      "count": 16499,
      "max": [
        0.9999880790710449,
        0.007507695816457272,
        0.9999994039535522
      ],
      "min": [
        -0.999983549118042,
        -1.0,
        -0.9999788999557495
      ],
      "type": "VEC3"
    },
    {
      "bufferView": 0,
      "byteOffset": 559008,
      "componentType": 5125,
      "count": 96456,
      "type": "SCALAR"
    }
  ],
  "asset": {
    "extras": {
      "author": "lunartrashonly (https://sketchfab.com/lunartrashonly)",
      "license": "CC-BY-NC-4.0 (http://creativecommons.org/licenses/by-nc/4.0/)",
      "source": "https://sketchfab.com/3d-models/jaguar-logo-8ddb43eac9d0465bb10a275f08e4b9af",
      "title": "jaguar logo"
    },
    "generator": "Sketchfab-12.68.0",
    "version": "2.0"
  },
  "bufferViews": [
    {
      "buffer": 0,
      "byteLength": 944832,
      "name": "floatBufferViews",
      "target": 34963
    },
    {
      "buffer": 0,
      "byteLength": 979896,
      "byteOffset": 944832,
      "byteStride": 12,
      "name": "floatBufferViews",
      "target": 34962
    }
  ],
  "buffers": [
    {
      "byteLength": 1924728,
      "uri": "scene.bin"
    }
  ],
  "materials": [
    {
      "doubleSided": true,
      "name": "chromium_metal",
      "pbrMetallicRoughness": {
        "baseColorFactor": [
          0.3321294590469937,
          0.3321294590469937,
          0.3321294590469937,
          1.0
        ],
        "roughnessFactor": 0.17138640108470282
      }
    }
  ],
  "meshes": [
    {
      "name": "logo_002_chromium_metal_0",
      "primitives": [
        {
          "attributes": {
            "NORMAL": 1,
            "POSITION": 0
          },
          "indices": 2,
          "material": 0,
          "mode": 4
        }
      ]
    },
    {
      "name": "logo_001_chromium_metal_0",
      "primitives": [
        {
          "attributes": {
            "NORMAL": 4,
            "POSITION": 3
          },
          "indices": 5,
          "material": 0,
          "mode": 4
        }
      ]
    }
  ],
  "nodes": [
    {
      "children": [
        1
      ],
      "matrix": [
        1.0,
        0.0,
        0.0,
        0.0,
        0.0,
        2.220446049250313e-16,
        -1.0,
        0.0,
        0.0,
        1.0,
        2.220446049250313e-16,
        0.0,
        0.0,
        0.0,
        0.0,
        1.0
      ],
      "name": "Sketchfab_model"
    },
    {
      "children": [
        2
      ],
      "matrix": [
        1.0,
        0.0,
        0.0,
        0.0,
        0.0,
        0.0,
        1.0,
        0.0,
        0.0,
        -1.0,
        0.0,
        0.0,
        0.0,
        0.0,
        0.0,
        1.0
      ],
      "name": "jaguar_logo_fbx.fbx"
    },
    {
      "children": [
        3,
        5
      ],
      "name": "RootNode"
    },
    {
      "children": [
        4
      ],
      "matrix": [
        100.0,
        0.0,
        0.0,
        0.0,
        0.0,
        -1.629206793918314e-05,
        -99.99999999999868,
        0.0,
        0.0,
        99.99999999999868,
        -1.629206793918314e-05,
        0.0,
        0.0,
        -22.5,
        0.0,
        1.0
      ],
      "name": "logo_002"
    },
    {
      "mesh": 0,
      "name": "logo_002_chromium_metal_0"
    },
    {
      "children": [
        6
      ],
      "matrix": [
        100.0,
        0.0,
        0.0,
        0.0,
        0.0,
        -1.629206793918314e-05,
        -99.99999999999868,
        0.0,
        0.0,
        99.99999999999868,
        -1.629206793918314e-05,
        0.0,
        0.0,
        22.5,
        0.0,
        1.0
      ],
      "name": "logo_001"
    },
    {
      "mesh": 1,
      "name": "logo_001_chromium_metal_0"
    }
  ],
  "scene": 0,
  "scenes": [
    {
      "name": "Sketchfab_Scene",
      "nodes": [
        0
      ]
    }
  ]
}
